<?xml version="1.0" standalone="no"?>
<!DOCTYPE svg PUBLIC "-//W3C//DTD SVG 20010904//EN"
 "http://www.w3.org/TR/2001/REC-SVG-20010904/DTD/svg10.dtd">
<svg version="1.0" xmlns="http://www.w3.org/2000/svg"
 width="894.000000pt" height="894.000000pt" viewBox="0 0 894.000000 894.000000"
 preserveAspectRatio="xMidYMid meet">

<g transform="translate(0.000000,894.000000) scale(0.100000,-0.100000)"
fill="#000000" stroke="none">
<path d="M3980 8352 c0 -5 61 -116 136 -248 184 -324 465 -818 736 -1294 124
-217 302 -530 396 -695 93 -165 176 -312 182 -326 14 -30 13 -31 -193 -355
-601 -941 -748 -1175 -742 -1184 3 -5 40 -10 81 -10 53 0 74 -4 74 -13 0 -7
-16 -36 -35 -65 l-36 -52 -84 0 -85 0 -77 -117 c-178 -274 -233 -362 -233
-372 0 -12 371 -25 475 -16 l86 7 166 249 166 249 81 0 c45 0 86 4 93 8 19 12
92 125 87 134 -3 4 -41 8 -86 8 -67 0 -79 2 -74 15 3 8 236 359 517 780 461
688 511 767 501 787 -9 19 -258 317 -571 683 -98 115 -836 987 -876 1036 -16
20 -151 180 -300 354 -148 175 -294 347 -323 382 -52 62 -62 71 -62 55z"/>
<path d="M4399 5754 c-7 -8 -187 -270 -400 -582 -213 -312 -466 -680 -561
-819 l-172 -252 -80 -3 -80 -3 -103 -150 c-56 -82 -101 -154 -99 -160 1 -5 37
-12 80 -15 l77 -5 -31 -49 c-28 -43 -31 -55 -25 -93 l6 -43 -80 0 c-45 0 -81
-3 -81 -6 0 -10 43 -78 54 -86 6 -4 43 -8 82 -8 l72 0 82 -148 c46 -81 84
-148 84 -149 1 -1 37 -6 80 -10 l79 -8 33 -60 c19 -33 34 -63 34 -67 0 -5 -17
-9 -37 -9 -21 -1 -50 -4 -66 -8 l-28 -6 77 -135 c85 -151 265 -470 493 -872
83 -148 151 -272 151 -278 0 -5 -15 -10 -32 -10 -18 0 -40 -5 -48 -10 -17 -11
-30 15 159 -319 66 -118 122 -221 123 -230 2 -11 -6 -17 -29 -19 -37 -4 -39
-10 -17 -55 28 -55 44 -67 89 -67 l43 0 95 -168 c52 -92 154 -272 227 -400 72
-128 134 -231 136 -229 4 4 -29 88 -236 596 -39 96 -75 181 -81 188 -7 7 -29
13 -51 13 -38 0 -40 2 -65 56 -28 62 -24 74 30 74 15 0 27 2 27 5 0 3 -43 112
-95 242 -52 130 -95 242 -95 250 0 9 14 13 45 13 74 0 81 -31 -94 399 -39 96
-71 180 -71 188 0 7 11 13 24 13 14 0 27 4 30 9 3 4 -18 66 -48 137 l-53 129
-36 3 c-19 2 -40 8 -44 15 -11 14 -181 434 -185 457 -2 12 11 16 62 20 74 6
75 9 37 90 l-22 45 -74 5 -74 5 -61 150 -61 150 -78 3 -79 3 -19 45 c-11 24
-17 49 -14 54 3 6 42 10 87 10 78 0 80 1 75 22 -4 15 6 39 33 80 22 32 40 62
40 68 0 6 -33 10 -80 10 -44 0 -80 4 -80 8 0 5 46 78 103 163 l102 154 79 6
c68 4 82 9 98 30 11 13 151 222 311 464 161 242 399 602 530 798 130 197 235
363 232 368 -4 5 -115 9 -264 9 -223 0 -260 -2 -272 -16z"/>
</g>
</svg>
